<svg xmlns="http://www.w3.org/2000/svg" width="24" height="22" viewBox="0 0 24 22"><g><g><path fill="#00aef0" d="M17.128 17.386c.546 0 .973.432.973.983a.967.967 0 0 1-.973.983.967.967 0 0 1-.972-.983c0-.551.427-.983.972-.983zm-7.328 0a.97.97 0 0 1 .978.983.97.97 0 0 1-.978.983.97.97 0 0 1-.978-.983.97.97 0 0 1 .978-.983zm7.333-1.481c-1.341 0-2.444 1.114-2.444 2.469 0 1.355 1.103 2.47 2.444 2.47 1.342 0 2.445-1.115 2.445-2.47 0-1.355-1.103-2.47-2.445-2.47zm-7.338 0c-1.339 0-2.44 1.114-2.44 2.469 0 1.355 1.101 2.47 2.44 2.47s2.44-1.115 2.44-2.47c0-1.355-1.101-2.47-2.44-2.47zM6.088 5.04h15.254l-1.367 5.926H7.333zM1.732 1.09A.737.737 0 0 0 1 1.83c0 .41.328.741.733.741h2.338l2.52 12.014c.1.453.394.829.765.826h12.222c.387.005.744-.35.744-.74 0-.392-.357-.747-.744-.741H7.95l-.313-1.482h12.918a.758.758 0 0 0 .71-.579l1.711-7.407c.095-.43-.274-.9-.71-.903H5.782l-.397-1.883a.758.758 0 0 0-.718-.586z"/><path fill="none" stroke="#fff" stroke-miterlimit="20" stroke-width=".2" d="M17.128 17.386c.546 0 .973.432.973.983a.967.967 0 0 1-.973.983.967.967 0 0 1-.972-.983c0-.551.427-.983.972-.983zm-7.328 0a.97.97 0 0 1 .978.983.97.97 0 0 1-.978.983.97.97 0 0 1-.978-.983.97.97 0 0 1 .978-.983zm7.333-1.481c-1.341 0-2.444 1.114-2.444 2.469 0 1.355 1.103 2.47 2.444 2.47 1.342 0 2.445-1.115 2.445-2.47 0-1.355-1.103-2.47-2.445-2.47zm-7.338 0c-1.339 0-2.44 1.114-2.44 2.469 0 1.355 1.101 2.47 2.44 2.47s2.44-1.115 2.44-2.47c0-1.355-1.101-2.47-2.44-2.47zM6.088 5.04h15.254l-1.367 5.926H7.333zM1.732 1.09A.737.737 0 0 0 1 1.83c0 .41.328.741.733.741h2.338l2.52 12.014c.1.453.394.829.765.826h12.222c.387.005.744-.35.744-.74 0-.392-.357-.747-.744-.741H7.95l-.313-1.482h12.918a.758.758 0 0 0 .71-.579l1.711-7.407c.095-.43-.274-.9-.71-.903H5.782l-.397-1.883a.758.758 0 0 0-.718-.586z"/></g></g></svg>