<svg xmlns="http://www.w3.org/2000/svg" width="14" height="14" viewBox="0 0 14 14"><g><g><path fill="#6b6f74" d="M13 2.333v9.334C13 12.4 12.4 13 11.667 13H2.333C1.593 13 1 12.4 1 11.667V9h1.333v2.667h9.334V2.333H2.333V5H1V2.333C1 1.6 1.593 1 2.333 1h9.334C12.4 1 13 1.6 13 2.333zM7.447 7.661H1V6.329h6.447l-1.72-1.724.94-.938L10 6.995l-3.333 3.328-.94-.938z"/><path fill="none" stroke="#fff" stroke-miterlimit="20" stroke-width=".5" d="M13 2.333v9.334C13 12.4 12.4 13 11.667 13H2.333C1.593 13 1 12.4 1 11.667V9h1.333v2.667h9.334V2.333H2.333V5H1V2.333C1 1.6 1.593 1 2.333 1h9.334C12.4 1 13 1.6 13 2.333zM7.447 7.661H1V6.329h6.447l-1.72-1.724.94-.938L10 6.995l-3.333 3.328-.94-.938z"/></g></g></svg>